<?xml version="1.0" encoding="UTF-8" standalone="no"?>
<!-- Generator: Adobe Illustrator 16.0.0, SVG Export Plug-In . SVG Version: 6.00 Build 0)  -->

<svg
   xmlns:dc="http://purl.org/dc/elements/1.1/"
   xmlns:cc="http://creativecommons.org/ns#"
   xmlns:rdf="http://www.w3.org/1999/02/22-rdf-syntax-ns#"
   xmlns:svg="http://www.w3.org/2000/svg"
   xmlns="http://www.w3.org/2000/svg"
   xmlns:sodipodi="http://sodipodi.sourceforge.net/DTD/sodipodi-0.dtd"
   xmlns:inkscape="http://www.inkscape.org/namespaces/inkscape"
   version="1.1"
   id="Layer_1"
   x="0px"
   y="0px"
   width="415.98401"
   height="448"
   viewBox="0 0 415.98401 448"
   enable-background="new 0 0 512 512"
   xml:space="preserve"
   inkscape:version="0.91 r13725"
   sodipodi:docname="light-on.svg"><metadata
     id="metadata3350"><rdf:RDF><cc:Work
         rdf:about=""><dc:format>image/svg+xml</dc:format><dc:type
           rdf:resource="http://purl.org/dc/dcmitype/StillImage" /><dc:title></dc:title></cc:Work></rdf:RDF></metadata><defs
     id="defs3348" /><sodipodi:namedview
     pagecolor="#ffffff"
     bordercolor="#666666"
     borderopacity="1"
     objecttolerance="10"
     gridtolerance="10"
     guidetolerance="10"
     inkscape:pageopacity="0"
     inkscape:pageshadow="2"
     inkscape:window-width="1680"
     inkscape:window-height="997"
     id="namedview3346"
     showgrid="false"
     fit-margin-top="0"
     fit-margin-left="0"
     fit-margin-right="0"
     fit-margin-bottom="0"
     inkscape:zoom="0.4609375"
     inkscape:cx="208.14"
     inkscape:cy="223.469"
     inkscape:window-x="-8"
     inkscape:window-y="-8"
     inkscape:window-maximized="1"
     inkscape:current-layer="Layer_1" /><path
     d="M 415.984,240 C 415.984,354.688 322.671,448 208,448 93.312,448 0,354.687 0,240 0,180.687 25.438,124 69.797,84.562 c 6.594,-5.875 16.734,-5.313 22.594,1.313 5.875,6.625 5.281,16.688 -1.313,22.563 C 53.531,141.876 32,189.813 32,240.001 c 0,97.063 78.953,176 176,176 97.047,0 175.984,-78.938 175.984,-176 0,-50.188 -21.5,-98.125 -59,-131.5 -6.625,-5.875 -7.25,-16 -1.375,-22.563 5.938,-6.688 16.063,-7.25 22.625,-1.375 44.312,39.437 69.75,96.124 69.75,155.437 z M 207.999,192 c 8.844,0 16,-7.125 16,-16 l 0,-160 c 0,-8.813 -7.156,-16 -16,-16 -8.844,0 -16,7.188 -16,16 l 0,160 c 0,8.875 7.157,16 16,16 z"
     id="path3344"
     inkscape:connector-curvature="0"
     style="fill:#ffffff" /></svg>